<mxfile host="app.diagrams.net" modified="2023-08-04T05:05:13.835Z" agent="Mozilla/5.0 (Macintosh; Intel Mac OS X 10_15_7) AppleWebKit/537.36 (KHTML, like Gecko) Chrome/115.0.0.0 Safari/537.36" etag="gpIpakT6UC3FV661Lppl" version="21.6.6" type="github">
  <diagram name="Page-1" id="64c3da0e-402f-94eb-ee01-a36477274f13">
    <mxGraphModel dx="1408" dy="748" grid="1" gridSize="10" guides="1" tooltips="1" connect="1" arrows="1" fold="1" page="1" pageScale="1" pageWidth="1169" pageHeight="826" background="none" math="0" shadow="0">
      <root>
        <mxCell id="0" />
        <mxCell id="1" parent="0" />
        <mxCell id="2" value="MAIN PROJECT" style="whiteSpace=wrap;rounded=1;shadow=1;fillColor=#10739E;strokeColor=none;fontColor=#FFFFFF;fontStyle=1;fontSize=24" parent="1" vertex="1">
          <mxGeometry x="1000" y="50" width="340" height="60" as="geometry" />
        </mxCell>
        <mxCell id="3" value="SUB-PROJECT 1" style="whiteSpace=wrap;rounded=1;fillColor=#F2931E;strokeColor=none;shadow=1;fontColor=#FFFFFF;fontStyle=1;fontSize=14" parent="1" vertex="1">
          <mxGeometry x="160" y="169.9999999999998" width="140" height="60" as="geometry" />
        </mxCell>
        <mxCell id="4" value="SUB-PROJECT 2" style="whiteSpace=wrap;rounded=1;fillColor=#F2931E;strokeColor=none;shadow=1;fontColor=#FFFFFF;fontStyle=1;fontSize=14" parent="1" vertex="1">
          <mxGeometry x="530" y="169.9999999999998" width="140" height="60" as="geometry" />
        </mxCell>
        <mxCell id="5" value="SUB-PROJECT 6" style="whiteSpace=wrap;rounded=1;fillColor=#F2931E;strokeColor=none;shadow=1;fontColor=#FFFFFF;fontStyle=1;fontSize=14" parent="1" vertex="1">
          <mxGeometry x="2010" y="169.9999999999998" width="140" height="60" as="geometry" />
        </mxCell>
        <mxCell id="6" value="SUB-PROJECT 3" style="whiteSpace=wrap;rounded=1;fillColor=#F2931E;strokeColor=none;shadow=1;fontColor=#FFFFFF;fontStyle=1;fontSize=14" parent="1" vertex="1">
          <mxGeometry x="900" y="169.9999999999998" width="140" height="60" as="geometry" />
        </mxCell>
        <mxCell id="7" value="SUB-PROJECT 4" style="whiteSpace=wrap;rounded=1;fillColor=#F2931E;strokeColor=none;shadow=1;fontColor=#FFFFFF;fontStyle=1;fontSize=14" parent="1" vertex="1">
          <mxGeometry x="1270" y="169.9999999999998" width="140" height="60" as="geometry" />
        </mxCell>
        <mxCell id="8" value="SUB-PROJECT 5" style="whiteSpace=wrap;rounded=1;fillColor=#F2931E;strokeColor=none;shadow=1;fontColor=#FFFFFF;fontStyle=1;fontSize=14" parent="1" vertex="1">
          <mxGeometry x="1640" y="169.9999999999998" width="140" height="60" as="geometry" />
        </mxCell>
        <mxCell id="10" value="SUB-TASK 1" style="whiteSpace=wrap;rounded=1;fillColor=#12AAB5;strokeColor=none;shadow=1;fontColor=#FFFFFF;" parent="1" vertex="1">
          <mxGeometry x="70" y="300.0000000000001" width="120" height="60" as="geometry" />
        </mxCell>
        <mxCell id="12" value="SUB-TASK 2" style="whiteSpace=wrap;rounded=1;fillColor=#12AAB5;strokeColor=none;shadow=1;fontColor=#FFFFFF;" parent="1" vertex="1">
          <mxGeometry x="270" y="300.0000000000001" width="120" height="60" as="geometry" />
        </mxCell>
        <mxCell id="23" value="WORK&#xa;PACKAGE 1" style="whiteSpace=wrap;rounded=1;fillColor=#999999;strokeColor=none;shadow=1;fontColor=#FFFFFF;fontStyle=0" parent="1" vertex="1">
          <mxGeometry x="69.99999999999996" y="400.0000000000001" width="120" height="60" as="geometry" />
        </mxCell>
        <mxCell id="24" value="WORK&#xa;PACKAGE 2" style="whiteSpace=wrap;rounded=1;fillColor=#999999;strokeColor=none;shadow=1;fontColor=#FFFFFF;fontStyle=0" parent="1" vertex="1">
          <mxGeometry x="70.0000000000001" y="480.0000000000001" width="120" height="60" as="geometry" />
        </mxCell>
        <mxCell id="25" value="WORK&#xa;PACKAGE 3" style="whiteSpace=wrap;rounded=1;fillColor=#999999;strokeColor=none;shadow=1;fontColor=#FFFFFF;fontStyle=0" parent="1" vertex="1">
          <mxGeometry x="70.00000000000006" y="560.0000000000001" width="120" height="60" as="geometry" />
        </mxCell>
        <mxCell id="26" value="WORK&#xa;PACKAGE 4" style="whiteSpace=wrap;rounded=1;fillColor=#999999;strokeColor=none;shadow=1;fontColor=#FFFFFF;fontStyle=0" parent="1" vertex="1">
          <mxGeometry x="70.0000000000002" y="640.0000000000001" width="120" height="60" as="geometry" />
        </mxCell>
        <mxCell id="27" value="WORK&#xa;PACKAGE 5" style="whiteSpace=wrap;rounded=1;fillColor=#999999;strokeColor=none;shadow=1;fontColor=#FFFFFF;fontStyle=0" parent="1" vertex="1">
          <mxGeometry x="70.00000000000036" y="720.0000000000001" width="120" height="60" as="geometry" />
        </mxCell>
        <mxCell id="38" value="WORK&#xa;PACKAGE 1" style="whiteSpace=wrap;rounded=1;fillColor=#999999;strokeColor=none;shadow=1;fontColor=#FFFFFF;fontStyle=0" parent="1" vertex="1">
          <mxGeometry x="269.9999999999996" y="400.0000000000001" width="120" height="60" as="geometry" />
        </mxCell>
        <mxCell id="39" value="WORK&#xa;PACKAGE 2" style="whiteSpace=wrap;rounded=1;fillColor=#999999;strokeColor=none;shadow=1;fontColor=#FFFFFF;fontStyle=0" parent="1" vertex="1">
          <mxGeometry x="269.9999999999998" y="480.0000000000001" width="120" height="60" as="geometry" />
        </mxCell>
        <mxCell id="40" value="WORK&#xa;PACKAGE 3" style="whiteSpace=wrap;rounded=1;fillColor=#999999;strokeColor=none;shadow=1;fontColor=#FFFFFF;fontStyle=0" parent="1" vertex="1">
          <mxGeometry x="269.9999999999997" y="560.0000000000001" width="120" height="60" as="geometry" />
        </mxCell>
        <mxCell id="41" value="WORK&#xa;PACKAGE 4" style="whiteSpace=wrap;rounded=1;fillColor=#999999;strokeColor=none;shadow=1;fontColor=#FFFFFF;fontStyle=0" parent="1" vertex="1">
          <mxGeometry x="269.9999999999999" y="640.0000000000001" width="120" height="60" as="geometry" />
        </mxCell>
        <mxCell id="42" value="WORK&#xa;PACKAGE 5" style="whiteSpace=wrap;rounded=1;fillColor=#999999;strokeColor=none;shadow=1;fontColor=#FFFFFF;fontStyle=0" parent="1" vertex="1">
          <mxGeometry x="270" y="720.0000000000001" width="120" height="60" as="geometry" />
        </mxCell>
        <mxCell id="43" value="SUB-TASK 1" style="whiteSpace=wrap;rounded=1;fillColor=#12AAB5;strokeColor=none;shadow=1;fontColor=#FFFFFF;" parent="1" vertex="1">
          <mxGeometry x="439.9999999999998" y="300.0000000000001" width="120" height="60" as="geometry" />
        </mxCell>
        <mxCell id="44" value="SUB-TASK 2" style="whiteSpace=wrap;rounded=1;fillColor=#12AAB5;strokeColor=none;shadow=1;fontColor=#FFFFFF;" parent="1" vertex="1">
          <mxGeometry x="639.9999999999998" y="300.0000000000001" width="120" height="60" as="geometry" />
        </mxCell>
        <mxCell id="45" value="WORK&#xa;PACKAGE 1" style="whiteSpace=wrap;rounded=1;fillColor=#999999;strokeColor=none;shadow=1;fontColor=#FFFFFF;fontStyle=0" parent="1" vertex="1">
          <mxGeometry x="439.9999999999997" y="400.0000000000001" width="120" height="60" as="geometry" />
        </mxCell>
        <mxCell id="46" value="WORK&#xa;PACKAGE 2" style="whiteSpace=wrap;rounded=1;fillColor=#999999;strokeColor=none;shadow=1;fontColor=#FFFFFF;fontStyle=0" parent="1" vertex="1">
          <mxGeometry x="439.9999999999999" y="480.0000000000001" width="120" height="60" as="geometry" />
        </mxCell>
        <mxCell id="47" value="WORK&#xa;PACKAGE 3" style="whiteSpace=wrap;rounded=1;fillColor=#999999;strokeColor=none;shadow=1;fontColor=#FFFFFF;fontStyle=0" parent="1" vertex="1">
          <mxGeometry x="439.99999999999983" y="560.0000000000001" width="120" height="60" as="geometry" />
        </mxCell>
        <mxCell id="48" value="WORK&#xa;PACKAGE 4" style="whiteSpace=wrap;rounded=1;fillColor=#999999;strokeColor=none;shadow=1;fontColor=#FFFFFF;fontStyle=0" parent="1" vertex="1">
          <mxGeometry x="440" y="640.0000000000001" width="120" height="60" as="geometry" />
        </mxCell>
        <mxCell id="49" value="WORK&#xa;PACKAGE 5" style="whiteSpace=wrap;rounded=1;fillColor=#999999;strokeColor=none;shadow=1;fontColor=#FFFFFF;fontStyle=0" parent="1" vertex="1">
          <mxGeometry x="440.0000000000001" y="720.0000000000001" width="120" height="60" as="geometry" />
        </mxCell>
        <mxCell id="50" value="WORK&#xa;PACKAGE 1" style="whiteSpace=wrap;rounded=1;fillColor=#999999;strokeColor=none;shadow=1;fontColor=#FFFFFF;fontStyle=0" parent="1" vertex="1">
          <mxGeometry x="639.9999999999993" y="400.0000000000001" width="120" height="60" as="geometry" />
        </mxCell>
        <mxCell id="51" value="WORK&#xa;PACKAGE 2" style="whiteSpace=wrap;rounded=1;fillColor=#999999;strokeColor=none;shadow=1;fontColor=#FFFFFF;fontStyle=0" parent="1" vertex="1">
          <mxGeometry x="639.9999999999995" y="480.0000000000001" width="120" height="60" as="geometry" />
        </mxCell>
        <mxCell id="52" value="WORK&#xa;PACKAGE 3" style="whiteSpace=wrap;rounded=1;fillColor=#999999;strokeColor=none;shadow=1;fontColor=#FFFFFF;fontStyle=0" parent="1" vertex="1">
          <mxGeometry x="639.9999999999995" y="560.0000000000001" width="120" height="60" as="geometry" />
        </mxCell>
        <mxCell id="53" value="WORK&#xa;PACKAGE 4" style="whiteSpace=wrap;rounded=1;fillColor=#999999;strokeColor=none;shadow=1;fontColor=#FFFFFF;fontStyle=0" parent="1" vertex="1">
          <mxGeometry x="639.9999999999997" y="640.0000000000001" width="120" height="60" as="geometry" />
        </mxCell>
        <mxCell id="54" value="WORK&#xa;PACKAGE 5" style="whiteSpace=wrap;rounded=1;fillColor=#999999;strokeColor=none;shadow=1;fontColor=#FFFFFF;fontStyle=0" parent="1" vertex="1">
          <mxGeometry x="639.9999999999998" y="720.0000000000001" width="120" height="60" as="geometry" />
        </mxCell>
        <mxCell id="103" value="" style="edgeStyle=elbowEdgeStyle;elbow=vertical;rounded=0;fontColor=#000000;endArrow=none;endFill=0;strokeWidth=8;strokeColor=#23445D;" parent="1" source="3" target="10" edge="1">
          <mxGeometry width="100" height="100" relative="1" as="geometry">
            <mxPoint x="20" y="290" as="sourcePoint" />
            <mxPoint x="120" y="190" as="targetPoint" />
          </mxGeometry>
        </mxCell>
        <mxCell id="104" value="" style="edgeStyle=elbowEdgeStyle;elbow=vertical;rounded=0;fontColor=#000000;endArrow=none;endFill=0;strokeWidth=8;strokeColor=#23445D;" parent="1" source="3" target="12" edge="1">
          <mxGeometry width="100" height="100" relative="1" as="geometry">
            <mxPoint x="360" y="290" as="sourcePoint" />
            <mxPoint x="460" y="190" as="targetPoint" />
          </mxGeometry>
        </mxCell>
        <mxCell id="105" value="" style="edgeStyle=elbowEdgeStyle;elbow=horizontal;rounded=0;fontColor=#000000;endArrow=none;endFill=0;strokeWidth=8;strokeColor=#23445D;" parent="1" source="10" target="23" edge="1">
          <mxGeometry width="100" height="100" relative="1" as="geometry">
            <mxPoint x="10" y="480" as="sourcePoint" />
            <mxPoint x="110" y="380" as="targetPoint" />
            <Array as="points">
              <mxPoint x="50" y="380" />
            </Array>
          </mxGeometry>
        </mxCell>
        <mxCell id="106" value="" style="edgeStyle=elbowEdgeStyle;elbow=horizontal;rounded=0;fontColor=#000000;endArrow=none;endFill=0;strokeWidth=8;strokeColor=#23445D;" parent="1" source="10" target="24" edge="1">
          <mxGeometry width="100" height="100" relative="1" as="geometry">
            <mxPoint x="80" y="340" as="sourcePoint" />
            <mxPoint x="80" y="440" as="targetPoint" />
            <Array as="points">
              <mxPoint x="50" y="400" />
            </Array>
          </mxGeometry>
        </mxCell>
        <mxCell id="107" value="" style="edgeStyle=elbowEdgeStyle;elbow=horizontal;rounded=0;fontColor=#000000;endArrow=none;endFill=0;strokeWidth=8;strokeColor=#23445D;" parent="1" source="10" target="27" edge="1">
          <mxGeometry width="100" height="100" relative="1" as="geometry">
            <mxPoint x="80" y="340" as="sourcePoint" />
            <mxPoint x="80" y="440" as="targetPoint" />
            <Array as="points">
              <mxPoint x="50" y="540" />
            </Array>
          </mxGeometry>
        </mxCell>
        <mxCell id="109" value="" style="edgeStyle=elbowEdgeStyle;elbow=horizontal;rounded=0;fontColor=#000000;endArrow=none;endFill=0;strokeWidth=8;strokeColor=#23445D;" parent="1" source="10" target="26" edge="1">
          <mxGeometry width="100" height="100" relative="1" as="geometry">
            <mxPoint x="100" y="360" as="sourcePoint" />
            <mxPoint x="100" y="460" as="targetPoint" />
            <Array as="points">
              <mxPoint x="50" y="410" />
            </Array>
          </mxGeometry>
        </mxCell>
        <mxCell id="110" value="" style="edgeStyle=elbowEdgeStyle;elbow=horizontal;rounded=0;fontColor=#000000;endArrow=none;endFill=0;strokeWidth=8;strokeColor=#23445D;" parent="1" source="10" target="25" edge="1">
          <mxGeometry width="100" height="100" relative="1" as="geometry">
            <mxPoint x="110" y="370" as="sourcePoint" />
            <mxPoint x="110" y="470" as="targetPoint" />
            <Array as="points">
              <mxPoint x="50" y="430" />
            </Array>
          </mxGeometry>
        </mxCell>
        <mxCell id="111" value="" style="edgeStyle=elbowEdgeStyle;elbow=horizontal;rounded=0;fontColor=#000000;endArrow=none;endFill=0;strokeWidth=8;strokeColor=#23445D;" parent="1" target="38" edge="1">
          <mxGeometry width="100" height="100" relative="1" as="geometry">
            <mxPoint x="260" y="330.0000000000004" as="sourcePoint" />
            <mxPoint x="260" y="430.0000000000004" as="targetPoint" />
            <Array as="points">
              <mxPoint x="250" y="380" />
            </Array>
          </mxGeometry>
        </mxCell>
        <mxCell id="112" value="" style="edgeStyle=elbowEdgeStyle;elbow=horizontal;rounded=0;fontColor=#000000;endArrow=none;endFill=0;strokeWidth=8;strokeColor=#23445D;" parent="1" source="12" target="39" edge="1">
          <mxGeometry width="100" height="100" relative="1" as="geometry">
            <mxPoint x="260" y="330.0000000000004" as="sourcePoint" />
            <mxPoint x="260" y="510.0000000000004" as="targetPoint" />
            <Array as="points">
              <mxPoint x="250" y="420" />
            </Array>
          </mxGeometry>
        </mxCell>
        <mxCell id="113" value="" style="edgeStyle=elbowEdgeStyle;elbow=horizontal;rounded=0;fontColor=#000000;endArrow=none;endFill=0;strokeWidth=8;strokeColor=#23445D;" parent="1" source="12" target="42" edge="1">
          <mxGeometry width="100" height="100" relative="1" as="geometry">
            <mxPoint x="260" y="330.0000000000004" as="sourcePoint" />
            <mxPoint x="260.00000000000045" y="750.0000000000003" as="targetPoint" />
            <Array as="points">
              <mxPoint x="250" y="540" />
            </Array>
          </mxGeometry>
        </mxCell>
        <mxCell id="114" value="" style="edgeStyle=elbowEdgeStyle;elbow=horizontal;rounded=0;fontColor=#000000;endArrow=none;endFill=0;strokeWidth=8;strokeColor=#23445D;" parent="1" source="12" target="41" edge="1">
          <mxGeometry width="100" height="100" relative="1" as="geometry">
            <mxPoint x="260" y="330.0000000000004" as="sourcePoint" />
            <mxPoint x="260.0000000000002" y="670.0000000000003" as="targetPoint" />
            <Array as="points">
              <mxPoint x="250" y="500" />
            </Array>
          </mxGeometry>
        </mxCell>
        <mxCell id="115" value="" style="edgeStyle=elbowEdgeStyle;elbow=horizontal;rounded=0;fontColor=#000000;endArrow=none;endFill=0;strokeWidth=8;strokeColor=#23445D;" parent="1" source="12" target="40" edge="1">
          <mxGeometry width="100" height="100" relative="1" as="geometry">
            <mxPoint x="260" y="330.0000000000004" as="sourcePoint" />
            <mxPoint x="260" y="590.0000000000003" as="targetPoint" />
            <Array as="points">
              <mxPoint x="250" y="460" />
            </Array>
          </mxGeometry>
        </mxCell>
        <mxCell id="116" value="" style="edgeStyle=elbowEdgeStyle;elbow=vertical;rounded=0;fontColor=#000000;endArrow=none;endFill=0;strokeWidth=8;strokeColor=#23445D;" parent="1" source="4" target="43" edge="1">
          <mxGeometry width="100" height="100" relative="1" as="geometry">
            <mxPoint x="240" y="239.99999999999977" as="sourcePoint" />
            <mxPoint x="140" y="310" as="targetPoint" />
          </mxGeometry>
        </mxCell>
        <mxCell id="117" value="" style="edgeStyle=elbowEdgeStyle;elbow=vertical;rounded=0;fontColor=#000000;endArrow=none;endFill=0;strokeWidth=8;strokeColor=#23445D;" parent="1" source="4" target="44" edge="1">
          <mxGeometry width="100" height="100" relative="1" as="geometry">
            <mxPoint x="240" y="239.99999999999977" as="sourcePoint" />
            <mxPoint x="340" y="310" as="targetPoint" />
          </mxGeometry>
        </mxCell>
        <mxCell id="118" value="" style="edgeStyle=elbowEdgeStyle;elbow=horizontal;rounded=0;fontColor=#000000;endArrow=none;endFill=0;strokeWidth=8;strokeColor=#23445D;" parent="1" source="43" target="45" edge="1">
          <mxGeometry width="100" height="100" relative="1" as="geometry">
            <mxPoint x="420" y="330.00000000000045" as="sourcePoint" />
            <mxPoint x="429.99999999999955" y="430" as="targetPoint" />
            <Array as="points">
              <mxPoint x="420" y="380" />
            </Array>
          </mxGeometry>
        </mxCell>
        <mxCell id="119" value="" style="edgeStyle=elbowEdgeStyle;elbow=horizontal;rounded=0;fontColor=#000000;endArrow=none;endFill=0;strokeWidth=8;strokeColor=#23445D;" parent="1" source="43" target="46" edge="1">
          <mxGeometry width="100" height="100" relative="1" as="geometry">
            <mxPoint x="430" y="330" as="sourcePoint" />
            <mxPoint x="429.9999999999998" y="510" as="targetPoint" />
            <Array as="points">
              <mxPoint x="420" y="420" />
            </Array>
          </mxGeometry>
        </mxCell>
        <mxCell id="120" value="" style="edgeStyle=elbowEdgeStyle;elbow=horizontal;rounded=0;fontColor=#000000;endArrow=none;endFill=0;strokeWidth=8;strokeColor=#23445D;" parent="1" source="43" target="49" edge="1">
          <mxGeometry width="100" height="100" relative="1" as="geometry">
            <mxPoint x="430" y="330" as="sourcePoint" />
            <mxPoint x="430" y="750" as="targetPoint" />
            <Array as="points">
              <mxPoint x="420" y="550" />
            </Array>
          </mxGeometry>
        </mxCell>
        <mxCell id="121" value="" style="edgeStyle=elbowEdgeStyle;elbow=horizontal;rounded=0;fontColor=#000000;endArrow=none;endFill=0;strokeWidth=8;strokeColor=#23445D;" parent="1" source="43" target="48" edge="1">
          <mxGeometry width="100" height="100" relative="1" as="geometry">
            <mxPoint x="430" y="330" as="sourcePoint" />
            <mxPoint x="430" y="670" as="targetPoint" />
            <Array as="points">
              <mxPoint x="420" y="500" />
            </Array>
          </mxGeometry>
        </mxCell>
        <mxCell id="122" value="" style="edgeStyle=elbowEdgeStyle;elbow=horizontal;rounded=0;fontColor=#000000;endArrow=none;endFill=0;strokeWidth=8;strokeColor=#23445D;" parent="1" source="43" target="47" edge="1">
          <mxGeometry width="100" height="100" relative="1" as="geometry">
            <mxPoint x="430" y="330" as="sourcePoint" />
            <mxPoint x="429.9999999999998" y="590" as="targetPoint" />
            <Array as="points">
              <mxPoint x="420" y="470" />
            </Array>
          </mxGeometry>
        </mxCell>
        <mxCell id="123" value="" style="edgeStyle=elbowEdgeStyle;elbow=horizontal;rounded=0;fontColor=#000000;endArrow=none;endFill=0;strokeWidth=8;strokeColor=#23445D;" parent="1" source="44" target="50" edge="1">
          <mxGeometry width="100" height="100" relative="1" as="geometry">
            <mxPoint x="610" y="330.00000000000045" as="sourcePoint" />
            <mxPoint x="619.9999999999995" y="430" as="targetPoint" />
            <Array as="points">
              <mxPoint x="620" y="380" />
            </Array>
          </mxGeometry>
        </mxCell>
        <mxCell id="124" value="" style="edgeStyle=elbowEdgeStyle;elbow=horizontal;rounded=0;fontColor=#000000;endArrow=none;endFill=0;strokeWidth=8;strokeColor=#23445D;" parent="1" source="44" target="51" edge="1">
          <mxGeometry width="100" height="100" relative="1" as="geometry">
            <mxPoint x="620" y="330" as="sourcePoint" />
            <mxPoint x="619.9999999999998" y="510" as="targetPoint" />
            <Array as="points">
              <mxPoint x="620" y="420" />
            </Array>
          </mxGeometry>
        </mxCell>
        <mxCell id="125" value="" style="edgeStyle=elbowEdgeStyle;elbow=horizontal;rounded=0;fontColor=#000000;endArrow=none;endFill=0;strokeWidth=8;strokeColor=#23445D;" parent="1" source="44" target="54" edge="1">
          <mxGeometry width="100" height="100" relative="1" as="geometry">
            <mxPoint x="620" y="330" as="sourcePoint" />
            <mxPoint x="620" y="750" as="targetPoint" />
            <Array as="points">
              <mxPoint x="620" y="540" />
            </Array>
          </mxGeometry>
        </mxCell>
        <mxCell id="126" value="" style="edgeStyle=elbowEdgeStyle;elbow=horizontal;rounded=0;fontColor=#000000;endArrow=none;endFill=0;strokeWidth=8;strokeColor=#23445D;" parent="1" source="44" target="53" edge="1">
          <mxGeometry width="100" height="100" relative="1" as="geometry">
            <mxPoint x="620" y="330" as="sourcePoint" />
            <mxPoint x="620" y="670" as="targetPoint" />
            <Array as="points">
              <mxPoint x="620" y="500" />
            </Array>
          </mxGeometry>
        </mxCell>
        <mxCell id="127" value="" style="edgeStyle=elbowEdgeStyle;elbow=horizontal;rounded=0;fontColor=#000000;endArrow=none;endFill=0;strokeWidth=8;strokeColor=#23445D;" parent="1" source="44" target="52" edge="1">
          <mxGeometry width="100" height="100" relative="1" as="geometry">
            <mxPoint x="620" y="330" as="sourcePoint" />
            <mxPoint x="619.9999999999998" y="590" as="targetPoint" />
            <Array as="points">
              <mxPoint x="620" y="470" />
            </Array>
          </mxGeometry>
        </mxCell>
        <mxCell id="133" value="SUB-TASK 1" style="whiteSpace=wrap;rounded=1;fillColor=#12AAB5;strokeColor=none;shadow=1;fontColor=#FFFFFF;" parent="1" vertex="1">
          <mxGeometry x="809.9999999999998" y="300.0000000000001" width="120" height="60" as="geometry" />
        </mxCell>
        <mxCell id="134" value="SUB-TASK 2" style="whiteSpace=wrap;rounded=1;fillColor=#12AAB5;strokeColor=none;shadow=1;fontColor=#FFFFFF;" parent="1" vertex="1">
          <mxGeometry x="1009.9999999999998" y="300.0000000000001" width="120" height="60" as="geometry" />
        </mxCell>
        <mxCell id="135" value="WORK&#xa;PACKAGE 1" style="whiteSpace=wrap;rounded=1;fillColor=#999999;strokeColor=none;shadow=1;fontColor=#FFFFFF;fontStyle=0" parent="1" vertex="1">
          <mxGeometry x="809.9999999999998" y="400.0000000000001" width="120" height="60" as="geometry" />
        </mxCell>
        <mxCell id="136" value="WORK&#xa;PACKAGE 2" style="whiteSpace=wrap;rounded=1;fillColor=#999999;strokeColor=none;shadow=1;fontColor=#FFFFFF;fontStyle=0" parent="1" vertex="1">
          <mxGeometry x="809.9999999999999" y="480.0000000000001" width="120" height="60" as="geometry" />
        </mxCell>
        <mxCell id="137" value="WORK&#xa;PACKAGE 3" style="whiteSpace=wrap;rounded=1;fillColor=#999999;strokeColor=none;shadow=1;fontColor=#FFFFFF;fontStyle=0" parent="1" vertex="1">
          <mxGeometry x="809.9999999999998" y="560.0000000000001" width="120" height="60" as="geometry" />
        </mxCell>
        <mxCell id="138" value="WORK&#xa;PACKAGE 4" style="whiteSpace=wrap;rounded=1;fillColor=#999999;strokeColor=none;shadow=1;fontColor=#FFFFFF;fontStyle=0" parent="1" vertex="1">
          <mxGeometry x="810" y="640.0000000000001" width="120" height="60" as="geometry" />
        </mxCell>
        <mxCell id="139" value="WORK&#xa;PACKAGE 5" style="whiteSpace=wrap;rounded=1;fillColor=#999999;strokeColor=none;shadow=1;fontColor=#FFFFFF;fontStyle=0" parent="1" vertex="1">
          <mxGeometry x="810.0000000000001" y="720.0000000000001" width="120" height="60" as="geometry" />
        </mxCell>
        <mxCell id="140" value="WORK&#xa;PACKAGE 1" style="whiteSpace=wrap;rounded=1;fillColor=#999999;strokeColor=none;shadow=1;fontColor=#FFFFFF;fontStyle=0" parent="1" vertex="1">
          <mxGeometry x="1009.9999999999993" y="400.0000000000001" width="120" height="60" as="geometry" />
        </mxCell>
        <mxCell id="141" value="WORK&#xa;PACKAGE 2" style="whiteSpace=wrap;rounded=1;fillColor=#999999;strokeColor=none;shadow=1;fontColor=#FFFFFF;fontStyle=0" parent="1" vertex="1">
          <mxGeometry x="1009.9999999999995" y="480.0000000000001" width="120" height="60" as="geometry" />
        </mxCell>
        <mxCell id="142" value="WORK&#xa;PACKAGE 3" style="whiteSpace=wrap;rounded=1;fillColor=#999999;strokeColor=none;shadow=1;fontColor=#FFFFFF;fontStyle=0" parent="1" vertex="1">
          <mxGeometry x="1009.9999999999995" y="560.0000000000001" width="120" height="60" as="geometry" />
        </mxCell>
        <mxCell id="143" value="WORK&#xa;PACKAGE 4" style="whiteSpace=wrap;rounded=1;fillColor=#999999;strokeColor=none;shadow=1;fontColor=#FFFFFF;fontStyle=0" parent="1" vertex="1">
          <mxGeometry x="1009.9999999999997" y="640.0000000000001" width="120" height="60" as="geometry" />
        </mxCell>
        <mxCell id="144" value="WORK&#xa;PACKAGE 5" style="whiteSpace=wrap;rounded=1;fillColor=#999999;strokeColor=none;shadow=1;fontColor=#FFFFFF;fontStyle=0" parent="1" vertex="1">
          <mxGeometry x="1009.9999999999998" y="720.0000000000001" width="120" height="60" as="geometry" />
        </mxCell>
        <mxCell id="145" value="" style="edgeStyle=elbowEdgeStyle;elbow=horizontal;rounded=0;fontColor=#000000;endArrow=none;endFill=0;strokeWidth=8;strokeColor=#23445D;" parent="1" source="133" target="135" edge="1">
          <mxGeometry width="100" height="100" relative="1" as="geometry">
            <mxPoint x="790" y="330.00000000000045" as="sourcePoint" />
            <mxPoint x="799.9999999999995" y="430" as="targetPoint" />
            <Array as="points">
              <mxPoint x="790" y="380" />
            </Array>
          </mxGeometry>
        </mxCell>
        <mxCell id="146" value="" style="edgeStyle=elbowEdgeStyle;elbow=horizontal;rounded=0;fontColor=#000000;endArrow=none;endFill=0;strokeWidth=8;strokeColor=#23445D;" parent="1" source="133" target="136" edge="1">
          <mxGeometry width="100" height="100" relative="1" as="geometry">
            <mxPoint x="800" y="330" as="sourcePoint" />
            <mxPoint x="799.9999999999998" y="510" as="targetPoint" />
            <Array as="points">
              <mxPoint x="790" y="420" />
            </Array>
          </mxGeometry>
        </mxCell>
        <mxCell id="147" value="" style="edgeStyle=elbowEdgeStyle;elbow=horizontal;rounded=0;fontColor=#000000;endArrow=none;endFill=0;strokeWidth=8;strokeColor=#23445D;" parent="1" source="133" target="139" edge="1">
          <mxGeometry width="100" height="100" relative="1" as="geometry">
            <mxPoint x="800" y="330" as="sourcePoint" />
            <mxPoint x="800" y="750" as="targetPoint" />
            <Array as="points">
              <mxPoint x="790" y="550" />
            </Array>
          </mxGeometry>
        </mxCell>
        <mxCell id="148" value="" style="edgeStyle=elbowEdgeStyle;elbow=horizontal;rounded=0;fontColor=#000000;endArrow=none;endFill=0;strokeWidth=8;strokeColor=#23445D;" parent="1" source="133" target="138" edge="1">
          <mxGeometry width="100" height="100" relative="1" as="geometry">
            <mxPoint x="800" y="330" as="sourcePoint" />
            <mxPoint x="800" y="670" as="targetPoint" />
            <Array as="points">
              <mxPoint x="790" y="500" />
            </Array>
          </mxGeometry>
        </mxCell>
        <mxCell id="149" value="" style="edgeStyle=elbowEdgeStyle;elbow=horizontal;rounded=0;fontColor=#000000;endArrow=none;endFill=0;strokeWidth=8;strokeColor=#23445D;" parent="1" source="133" target="137" edge="1">
          <mxGeometry width="100" height="100" relative="1" as="geometry">
            <mxPoint x="800" y="330" as="sourcePoint" />
            <mxPoint x="799.9999999999998" y="590" as="targetPoint" />
            <Array as="points">
              <mxPoint x="790" y="470" />
            </Array>
          </mxGeometry>
        </mxCell>
        <mxCell id="150" value="" style="edgeStyle=elbowEdgeStyle;elbow=horizontal;rounded=0;fontColor=#000000;endArrow=none;endFill=0;strokeWidth=8;strokeColor=#23445D;" parent="1" source="134" target="140" edge="1">
          <mxGeometry width="100" height="100" relative="1" as="geometry">
            <mxPoint x="980" y="330.00000000000045" as="sourcePoint" />
            <mxPoint x="989.9999999999995" y="430" as="targetPoint" />
            <Array as="points">
              <mxPoint x="990" y="380" />
            </Array>
          </mxGeometry>
        </mxCell>
        <mxCell id="151" value="" style="edgeStyle=elbowEdgeStyle;elbow=horizontal;rounded=0;fontColor=#000000;endArrow=none;endFill=0;strokeWidth=8;strokeColor=#23445D;" parent="1" source="134" target="141" edge="1">
          <mxGeometry width="100" height="100" relative="1" as="geometry">
            <mxPoint x="990" y="330" as="sourcePoint" />
            <mxPoint x="989.9999999999998" y="510" as="targetPoint" />
            <Array as="points">
              <mxPoint x="990" y="420" />
            </Array>
          </mxGeometry>
        </mxCell>
        <mxCell id="152" value="" style="edgeStyle=elbowEdgeStyle;elbow=horizontal;rounded=0;fontColor=#000000;endArrow=none;endFill=0;strokeWidth=8;strokeColor=#23445D;" parent="1" source="134" target="144" edge="1">
          <mxGeometry width="100" height="100" relative="1" as="geometry">
            <mxPoint x="990" y="330" as="sourcePoint" />
            <mxPoint x="990" y="750" as="targetPoint" />
            <Array as="points">
              <mxPoint x="990" y="540" />
            </Array>
          </mxGeometry>
        </mxCell>
        <mxCell id="153" value="" style="edgeStyle=elbowEdgeStyle;elbow=horizontal;rounded=0;fontColor=#000000;endArrow=none;endFill=0;strokeWidth=8;strokeColor=#23445D;" parent="1" source="134" target="143" edge="1">
          <mxGeometry width="100" height="100" relative="1" as="geometry">
            <mxPoint x="990" y="330" as="sourcePoint" />
            <mxPoint x="990" y="670" as="targetPoint" />
            <Array as="points">
              <mxPoint x="990" y="500" />
            </Array>
          </mxGeometry>
        </mxCell>
        <mxCell id="154" value="" style="edgeStyle=elbowEdgeStyle;elbow=horizontal;rounded=0;fontColor=#000000;endArrow=none;endFill=0;strokeWidth=8;strokeColor=#23445D;" parent="1" source="134" target="142" edge="1">
          <mxGeometry width="100" height="100" relative="1" as="geometry">
            <mxPoint x="990" y="330" as="sourcePoint" />
            <mxPoint x="989.9999999999998" y="590" as="targetPoint" />
            <Array as="points">
              <mxPoint x="990" y="470" />
            </Array>
          </mxGeometry>
        </mxCell>
        <mxCell id="155" value="SUB-TASK 1" style="whiteSpace=wrap;rounded=1;fillColor=#12AAB5;strokeColor=none;shadow=1;fontColor=#FFFFFF;" parent="1" vertex="1">
          <mxGeometry x="1179.9999999999998" y="300.0000000000002" width="120" height="60" as="geometry" />
        </mxCell>
        <mxCell id="156" value="SUB-TASK 2" style="whiteSpace=wrap;rounded=1;fillColor=#12AAB5;strokeColor=none;shadow=1;fontColor=#FFFFFF;" parent="1" vertex="1">
          <mxGeometry x="1379.9999999999998" y="300.0000000000002" width="120" height="60" as="geometry" />
        </mxCell>
        <mxCell id="157" value="WORK&#xa;PACKAGE 1" style="whiteSpace=wrap;rounded=1;fillColor=#999999;strokeColor=none;shadow=1;fontColor=#FFFFFF;fontStyle=0" parent="1" vertex="1">
          <mxGeometry x="1179.9999999999998" y="400.0000000000002" width="120" height="60" as="geometry" />
        </mxCell>
        <mxCell id="158" value="WORK&#xa;PACKAGE 2" style="whiteSpace=wrap;rounded=1;fillColor=#999999;strokeColor=none;shadow=1;fontColor=#FFFFFF;fontStyle=0" parent="1" vertex="1">
          <mxGeometry x="1180" y="480.0000000000002" width="120" height="60" as="geometry" />
        </mxCell>
        <mxCell id="159" value="WORK&#xa;PACKAGE 3" style="whiteSpace=wrap;rounded=1;fillColor=#999999;strokeColor=none;shadow=1;fontColor=#FFFFFF;fontStyle=0" parent="1" vertex="1">
          <mxGeometry x="1179.9999999999998" y="560.0000000000002" width="120" height="60" as="geometry" />
        </mxCell>
        <mxCell id="160" value="WORK&#xa;PACKAGE 4" style="whiteSpace=wrap;rounded=1;fillColor=#999999;strokeColor=none;shadow=1;fontColor=#FFFFFF;fontStyle=0" parent="1" vertex="1">
          <mxGeometry x="1180" y="640.0000000000002" width="120" height="60" as="geometry" />
        </mxCell>
        <mxCell id="161" value="WORK&#xa;PACKAGE 5" style="whiteSpace=wrap;rounded=1;fillColor=#999999;strokeColor=none;shadow=1;fontColor=#FFFFFF;fontStyle=0" parent="1" vertex="1">
          <mxGeometry x="1180" y="720.0000000000002" width="120" height="60" as="geometry" />
        </mxCell>
        <mxCell id="162" value="WORK&#xa;PACKAGE 1" style="whiteSpace=wrap;rounded=1;fillColor=#999999;strokeColor=none;shadow=1;fontColor=#FFFFFF;fontStyle=0" parent="1" vertex="1">
          <mxGeometry x="1379.9999999999993" y="400.0000000000002" width="120" height="60" as="geometry" />
        </mxCell>
        <mxCell id="163" value="WORK&#xa;PACKAGE 2" style="whiteSpace=wrap;rounded=1;fillColor=#999999;strokeColor=none;shadow=1;fontColor=#FFFFFF;fontStyle=0" parent="1" vertex="1">
          <mxGeometry x="1379.9999999999995" y="480.0000000000002" width="120" height="60" as="geometry" />
        </mxCell>
        <mxCell id="164" value="WORK&#xa;PACKAGE 3" style="whiteSpace=wrap;rounded=1;fillColor=#999999;strokeColor=none;shadow=1;fontColor=#FFFFFF;fontStyle=0" parent="1" vertex="1">
          <mxGeometry x="1379.9999999999995" y="560.0000000000002" width="120" height="60" as="geometry" />
        </mxCell>
        <mxCell id="165" value="WORK&#xa;PACKAGE 4" style="whiteSpace=wrap;rounded=1;fillColor=#999999;strokeColor=none;shadow=1;fontColor=#FFFFFF;fontStyle=0" parent="1" vertex="1">
          <mxGeometry x="1379.9999999999995" y="640.0000000000002" width="120" height="60" as="geometry" />
        </mxCell>
        <mxCell id="166" value="WORK&#xa;PACKAGE 5" style="whiteSpace=wrap;rounded=1;fillColor=#999999;strokeColor=none;shadow=1;fontColor=#FFFFFF;fontStyle=0" parent="1" vertex="1">
          <mxGeometry x="1379.9999999999998" y="720.0000000000002" width="120" height="60" as="geometry" />
        </mxCell>
        <mxCell id="167" value="" style="edgeStyle=elbowEdgeStyle;elbow=horizontal;rounded=0;fontColor=#000000;endArrow=none;endFill=0;strokeWidth=8;strokeColor=#23445D;" parent="1" source="155" target="157" edge="1">
          <mxGeometry width="100" height="100" relative="1" as="geometry">
            <mxPoint x="1160" y="330.00000000000057" as="sourcePoint" />
            <mxPoint x="1169.9999999999995" y="430.0000000000001" as="targetPoint" />
            <Array as="points">
              <mxPoint x="1160" y="380.0000000000001" />
            </Array>
          </mxGeometry>
        </mxCell>
        <mxCell id="168" value="" style="edgeStyle=elbowEdgeStyle;elbow=horizontal;rounded=0;fontColor=#000000;endArrow=none;endFill=0;strokeWidth=8;strokeColor=#23445D;" parent="1" source="155" target="158" edge="1">
          <mxGeometry width="100" height="100" relative="1" as="geometry">
            <mxPoint x="1170" y="330.0000000000001" as="sourcePoint" />
            <mxPoint x="1169.9999999999998" y="510.0000000000001" as="targetPoint" />
            <Array as="points">
              <mxPoint x="1160" y="420.0000000000001" />
            </Array>
          </mxGeometry>
        </mxCell>
        <mxCell id="169" value="" style="edgeStyle=elbowEdgeStyle;elbow=horizontal;rounded=0;fontColor=#000000;endArrow=none;endFill=0;strokeWidth=8;strokeColor=#23445D;" parent="1" source="155" target="161" edge="1">
          <mxGeometry width="100" height="100" relative="1" as="geometry">
            <mxPoint x="1170" y="330.0000000000001" as="sourcePoint" />
            <mxPoint x="1170" y="750.0000000000001" as="targetPoint" />
            <Array as="points">
              <mxPoint x="1160" y="550.0000000000001" />
            </Array>
          </mxGeometry>
        </mxCell>
        <mxCell id="170" value="" style="edgeStyle=elbowEdgeStyle;elbow=horizontal;rounded=0;fontColor=#000000;endArrow=none;endFill=0;strokeWidth=8;strokeColor=#23445D;" parent="1" source="155" target="160" edge="1">
          <mxGeometry width="100" height="100" relative="1" as="geometry">
            <mxPoint x="1170" y="330.0000000000001" as="sourcePoint" />
            <mxPoint x="1170" y="670.0000000000001" as="targetPoint" />
            <Array as="points">
              <mxPoint x="1160" y="500.0000000000001" />
            </Array>
          </mxGeometry>
        </mxCell>
        <mxCell id="171" value="" style="edgeStyle=elbowEdgeStyle;elbow=horizontal;rounded=0;fontColor=#000000;endArrow=none;endFill=0;strokeWidth=8;strokeColor=#23445D;" parent="1" source="155" target="159" edge="1">
          <mxGeometry width="100" height="100" relative="1" as="geometry">
            <mxPoint x="1170" y="330.0000000000001" as="sourcePoint" />
            <mxPoint x="1169.9999999999998" y="590.0000000000001" as="targetPoint" />
            <Array as="points">
              <mxPoint x="1160" y="470.0000000000001" />
            </Array>
          </mxGeometry>
        </mxCell>
        <mxCell id="172" value="" style="edgeStyle=elbowEdgeStyle;elbow=horizontal;rounded=0;fontColor=#000000;endArrow=none;endFill=0;strokeWidth=8;strokeColor=#23445D;" parent="1" source="156" target="162" edge="1">
          <mxGeometry width="100" height="100" relative="1" as="geometry">
            <mxPoint x="1350" y="330.00000000000057" as="sourcePoint" />
            <mxPoint x="1359.9999999999995" y="430.0000000000001" as="targetPoint" />
            <Array as="points">
              <mxPoint x="1360" y="380.0000000000001" />
            </Array>
          </mxGeometry>
        </mxCell>
        <mxCell id="173" value="" style="edgeStyle=elbowEdgeStyle;elbow=horizontal;rounded=0;fontColor=#000000;endArrow=none;endFill=0;strokeWidth=8;strokeColor=#23445D;" parent="1" source="156" target="163" edge="1">
          <mxGeometry width="100" height="100" relative="1" as="geometry">
            <mxPoint x="1360" y="330.0000000000001" as="sourcePoint" />
            <mxPoint x="1359.9999999999998" y="510.0000000000001" as="targetPoint" />
            <Array as="points">
              <mxPoint x="1360" y="420.0000000000001" />
            </Array>
          </mxGeometry>
        </mxCell>
        <mxCell id="174" value="" style="edgeStyle=elbowEdgeStyle;elbow=horizontal;rounded=0;fontColor=#000000;endArrow=none;endFill=0;strokeWidth=8;strokeColor=#23445D;" parent="1" source="156" target="166" edge="1">
          <mxGeometry width="100" height="100" relative="1" as="geometry">
            <mxPoint x="1360" y="330.0000000000001" as="sourcePoint" />
            <mxPoint x="1360" y="750.0000000000001" as="targetPoint" />
            <Array as="points">
              <mxPoint x="1360" y="540.0000000000001" />
            </Array>
          </mxGeometry>
        </mxCell>
        <mxCell id="175" value="" style="edgeStyle=elbowEdgeStyle;elbow=horizontal;rounded=0;fontColor=#000000;endArrow=none;endFill=0;strokeWidth=8;strokeColor=#23445D;" parent="1" source="156" target="165" edge="1">
          <mxGeometry width="100" height="100" relative="1" as="geometry">
            <mxPoint x="1360" y="330.0000000000001" as="sourcePoint" />
            <mxPoint x="1360" y="670.0000000000001" as="targetPoint" />
            <Array as="points">
              <mxPoint x="1360" y="500.0000000000001" />
            </Array>
          </mxGeometry>
        </mxCell>
        <mxCell id="176" value="" style="edgeStyle=elbowEdgeStyle;elbow=horizontal;rounded=0;fontColor=#000000;endArrow=none;endFill=0;strokeWidth=8;strokeColor=#23445D;" parent="1" source="156" target="164" edge="1">
          <mxGeometry width="100" height="100" relative="1" as="geometry">
            <mxPoint x="1360" y="330.0000000000001" as="sourcePoint" />
            <mxPoint x="1359.9999999999998" y="590.0000000000001" as="targetPoint" />
            <Array as="points">
              <mxPoint x="1360" y="470.0000000000001" />
            </Array>
          </mxGeometry>
        </mxCell>
        <mxCell id="177" value="SUB-TASK 1" style="whiteSpace=wrap;rounded=1;fillColor=#12AAB5;strokeColor=none;shadow=1;fontColor=#FFFFFF;" parent="1" vertex="1">
          <mxGeometry x="1549.9999999999998" y="299.9999999999999" width="120" height="60" as="geometry" />
        </mxCell>
        <mxCell id="178" value="SUB-TASK 2" style="whiteSpace=wrap;rounded=1;fillColor=#12AAB5;strokeColor=none;shadow=1;fontColor=#FFFFFF;" parent="1" vertex="1">
          <mxGeometry x="1749.9999999999998" y="299.9999999999999" width="120" height="60" as="geometry" />
        </mxCell>
        <mxCell id="179" value="WORK&#xa;PACKAGE 1" style="whiteSpace=wrap;rounded=1;fillColor=#999999;strokeColor=none;shadow=1;fontColor=#FFFFFF;fontStyle=0" parent="1" vertex="1">
          <mxGeometry x="1549.9999999999998" y="399.9999999999999" width="120" height="60" as="geometry" />
        </mxCell>
        <mxCell id="180" value="WORK&#xa;PACKAGE 2" style="whiteSpace=wrap;rounded=1;fillColor=#999999;strokeColor=none;shadow=1;fontColor=#FFFFFF;fontStyle=0" parent="1" vertex="1">
          <mxGeometry x="1550" y="479.9999999999999" width="120" height="60" as="geometry" />
        </mxCell>
        <mxCell id="181" value="WORK&#xa;PACKAGE 3" style="whiteSpace=wrap;rounded=1;fillColor=#999999;strokeColor=none;shadow=1;fontColor=#FFFFFF;fontStyle=0" parent="1" vertex="1">
          <mxGeometry x="1549.9999999999998" y="559.9999999999999" width="120" height="60" as="geometry" />
        </mxCell>
        <mxCell id="182" value="WORK&#xa;PACKAGE 4" style="whiteSpace=wrap;rounded=1;fillColor=#999999;strokeColor=none;shadow=1;fontColor=#FFFFFF;fontStyle=0" parent="1" vertex="1">
          <mxGeometry x="1550" y="639.9999999999999" width="120" height="60" as="geometry" />
        </mxCell>
        <mxCell id="183" value="WORK&#xa;PACKAGE 5" style="whiteSpace=wrap;rounded=1;fillColor=#999999;strokeColor=none;shadow=1;fontColor=#FFFFFF;fontStyle=0" parent="1" vertex="1">
          <mxGeometry x="1550" y="719.9999999999999" width="120" height="60" as="geometry" />
        </mxCell>
        <mxCell id="184" value="WORK&#xa;PACKAGE 1" style="whiteSpace=wrap;rounded=1;fillColor=#999999;strokeColor=none;shadow=1;fontColor=#FFFFFF;fontStyle=0" parent="1" vertex="1">
          <mxGeometry x="1749.9999999999993" y="399.9999999999999" width="120" height="60" as="geometry" />
        </mxCell>
        <mxCell id="185" value="WORK&#xa;PACKAGE 2" style="whiteSpace=wrap;rounded=1;fillColor=#999999;strokeColor=none;shadow=1;fontColor=#FFFFFF;fontStyle=0" parent="1" vertex="1">
          <mxGeometry x="1749.9999999999995" y="479.9999999999999" width="120" height="60" as="geometry" />
        </mxCell>
        <mxCell id="186" value="WORK&#xa;PACKAGE 3" style="whiteSpace=wrap;rounded=1;fillColor=#999999;strokeColor=none;shadow=1;fontColor=#FFFFFF;fontStyle=0" parent="1" vertex="1">
          <mxGeometry x="1749.9999999999995" y="559.9999999999999" width="120" height="60" as="geometry" />
        </mxCell>
        <mxCell id="187" value="WORK&#xa;PACKAGE 4" style="whiteSpace=wrap;rounded=1;fillColor=#999999;strokeColor=none;shadow=1;fontColor=#FFFFFF;fontStyle=0" parent="1" vertex="1">
          <mxGeometry x="1749.9999999999995" y="639.9999999999999" width="120" height="60" as="geometry" />
        </mxCell>
        <mxCell id="188" value="WORK&#xa;PACKAGE 5" style="whiteSpace=wrap;rounded=1;fillColor=#999999;strokeColor=none;shadow=1;fontColor=#FFFFFF;fontStyle=0" parent="1" vertex="1">
          <mxGeometry x="1749.9999999999998" y="719.9999999999999" width="120" height="60" as="geometry" />
        </mxCell>
        <mxCell id="189" value="" style="edgeStyle=elbowEdgeStyle;elbow=horizontal;rounded=0;fontColor=#000000;endArrow=none;endFill=0;strokeWidth=8;strokeColor=#23445D;" parent="1" source="177" target="179" edge="1">
          <mxGeometry width="100" height="100" relative="1" as="geometry">
            <mxPoint x="1530" y="330.0000000000002" as="sourcePoint" />
            <mxPoint x="1539.9999999999995" y="429.9999999999998" as="targetPoint" />
            <Array as="points">
              <mxPoint x="1530" y="379.9999999999998" />
            </Array>
          </mxGeometry>
        </mxCell>
        <mxCell id="190" value="" style="edgeStyle=elbowEdgeStyle;elbow=horizontal;rounded=0;fontColor=#000000;endArrow=none;endFill=0;strokeWidth=8;strokeColor=#23445D;" parent="1" source="177" target="180" edge="1">
          <mxGeometry width="100" height="100" relative="1" as="geometry">
            <mxPoint x="1540" y="329.9999999999998" as="sourcePoint" />
            <mxPoint x="1539.9999999999998" y="509.9999999999998" as="targetPoint" />
            <Array as="points">
              <mxPoint x="1530" y="419.9999999999998" />
            </Array>
          </mxGeometry>
        </mxCell>
        <mxCell id="191" value="" style="edgeStyle=elbowEdgeStyle;elbow=horizontal;rounded=0;fontColor=#000000;endArrow=none;endFill=0;strokeWidth=8;strokeColor=#23445D;" parent="1" source="177" target="183" edge="1">
          <mxGeometry width="100" height="100" relative="1" as="geometry">
            <mxPoint x="1540" y="329.9999999999998" as="sourcePoint" />
            <mxPoint x="1540" y="749.9999999999998" as="targetPoint" />
            <Array as="points">
              <mxPoint x="1530" y="549.9999999999998" />
            </Array>
          </mxGeometry>
        </mxCell>
        <mxCell id="192" value="" style="edgeStyle=elbowEdgeStyle;elbow=horizontal;rounded=0;fontColor=#000000;endArrow=none;endFill=0;strokeWidth=8;strokeColor=#23445D;" parent="1" source="177" target="182" edge="1">
          <mxGeometry width="100" height="100" relative="1" as="geometry">
            <mxPoint x="1540" y="329.9999999999998" as="sourcePoint" />
            <mxPoint x="1540" y="669.9999999999998" as="targetPoint" />
            <Array as="points">
              <mxPoint x="1530" y="499.9999999999998" />
            </Array>
          </mxGeometry>
        </mxCell>
        <mxCell id="193" value="" style="edgeStyle=elbowEdgeStyle;elbow=horizontal;rounded=0;fontColor=#000000;endArrow=none;endFill=0;strokeWidth=8;strokeColor=#23445D;" parent="1" source="177" target="181" edge="1">
          <mxGeometry width="100" height="100" relative="1" as="geometry">
            <mxPoint x="1540" y="329.9999999999998" as="sourcePoint" />
            <mxPoint x="1539.9999999999998" y="589.9999999999998" as="targetPoint" />
            <Array as="points">
              <mxPoint x="1530" y="469.9999999999998" />
            </Array>
          </mxGeometry>
        </mxCell>
        <mxCell id="194" value="" style="edgeStyle=elbowEdgeStyle;elbow=horizontal;rounded=0;fontColor=#000000;endArrow=none;endFill=0;strokeWidth=8;strokeColor=#23445D;" parent="1" source="178" target="184" edge="1">
          <mxGeometry width="100" height="100" relative="1" as="geometry">
            <mxPoint x="1720" y="330.0000000000002" as="sourcePoint" />
            <mxPoint x="1729.9999999999995" y="429.9999999999998" as="targetPoint" />
            <Array as="points">
              <mxPoint x="1730" y="379.9999999999998" />
            </Array>
          </mxGeometry>
        </mxCell>
        <mxCell id="195" value="" style="edgeStyle=elbowEdgeStyle;elbow=horizontal;rounded=0;fontColor=#000000;endArrow=none;endFill=0;strokeWidth=8;strokeColor=#23445D;" parent="1" source="178" target="185" edge="1">
          <mxGeometry width="100" height="100" relative="1" as="geometry">
            <mxPoint x="1730" y="329.9999999999998" as="sourcePoint" />
            <mxPoint x="1729.9999999999998" y="509.9999999999998" as="targetPoint" />
            <Array as="points">
              <mxPoint x="1730" y="419.9999999999998" />
            </Array>
          </mxGeometry>
        </mxCell>
        <mxCell id="196" value="" style="edgeStyle=elbowEdgeStyle;elbow=horizontal;rounded=0;fontColor=#000000;endArrow=none;endFill=0;strokeWidth=8;strokeColor=#23445D;" parent="1" source="178" target="188" edge="1">
          <mxGeometry width="100" height="100" relative="1" as="geometry">
            <mxPoint x="1730" y="329.9999999999998" as="sourcePoint" />
            <mxPoint x="1730" y="749.9999999999998" as="targetPoint" />
            <Array as="points">
              <mxPoint x="1730" y="539.9999999999998" />
            </Array>
          </mxGeometry>
        </mxCell>
        <mxCell id="197" value="" style="edgeStyle=elbowEdgeStyle;elbow=horizontal;rounded=0;fontColor=#000000;endArrow=none;endFill=0;strokeWidth=8;strokeColor=#23445D;" parent="1" source="178" target="187" edge="1">
          <mxGeometry width="100" height="100" relative="1" as="geometry">
            <mxPoint x="1730" y="329.9999999999998" as="sourcePoint" />
            <mxPoint x="1730" y="669.9999999999998" as="targetPoint" />
            <Array as="points">
              <mxPoint x="1730" y="499.9999999999998" />
            </Array>
          </mxGeometry>
        </mxCell>
        <mxCell id="198" value="" style="edgeStyle=elbowEdgeStyle;elbow=horizontal;rounded=0;fontColor=#000000;endArrow=none;endFill=0;strokeWidth=8;strokeColor=#23445D;" parent="1" source="178" target="186" edge="1">
          <mxGeometry width="100" height="100" relative="1" as="geometry">
            <mxPoint x="1730" y="329.9999999999998" as="sourcePoint" />
            <mxPoint x="1729.9999999999998" y="589.9999999999998" as="targetPoint" />
            <Array as="points">
              <mxPoint x="1730" y="469.9999999999998" />
            </Array>
          </mxGeometry>
        </mxCell>
        <mxCell id="199" value="SUB-TASK 1" style="whiteSpace=wrap;rounded=1;fillColor=#12AAB5;strokeColor=none;shadow=1;fontColor=#FFFFFF;" parent="1" vertex="1">
          <mxGeometry x="1919.9999999999998" y="299.9999999999997" width="120" height="60" as="geometry" />
        </mxCell>
        <mxCell id="200" value="SUB-TASK 2" style="whiteSpace=wrap;rounded=1;fillColor=#12AAB5;strokeColor=none;shadow=1;fontColor=#FFFFFF;" parent="1" vertex="1">
          <mxGeometry x="2120" y="299.9999999999997" width="120" height="60" as="geometry" />
        </mxCell>
        <mxCell id="201" value="WORK&#xa;PACKAGE 1" style="whiteSpace=wrap;rounded=1;fillColor=#999999;strokeColor=none;shadow=1;fontColor=#FFFFFF;fontStyle=0" parent="1" vertex="1">
          <mxGeometry x="1919.9999999999998" y="399.9999999999997" width="120" height="60" as="geometry" />
        </mxCell>
        <mxCell id="202" value="WORK&#xa;PACKAGE 2" style="whiteSpace=wrap;rounded=1;fillColor=#999999;strokeColor=none;shadow=1;fontColor=#FFFFFF;fontStyle=0" parent="1" vertex="1">
          <mxGeometry x="1920" y="479.9999999999997" width="120" height="60" as="geometry" />
        </mxCell>
        <mxCell id="203" value="WORK&#xa;PACKAGE 3" style="whiteSpace=wrap;rounded=1;fillColor=#999999;strokeColor=none;shadow=1;fontColor=#FFFFFF;fontStyle=0" parent="1" vertex="1">
          <mxGeometry x="1919.9999999999998" y="559.9999999999997" width="120" height="60" as="geometry" />
        </mxCell>
        <mxCell id="204" value="WORK&#xa;PACKAGE 4" style="whiteSpace=wrap;rounded=1;fillColor=#999999;strokeColor=none;shadow=1;fontColor=#FFFFFF;fontStyle=0" parent="1" vertex="1">
          <mxGeometry x="1920" y="639.9999999999997" width="120" height="60" as="geometry" />
        </mxCell>
        <mxCell id="205" value="WORK&#xa;PACKAGE 5" style="whiteSpace=wrap;rounded=1;fillColor=#999999;strokeColor=none;shadow=1;fontColor=#FFFFFF;fontStyle=0" parent="1" vertex="1">
          <mxGeometry x="1920" y="719.9999999999997" width="120" height="60" as="geometry" />
        </mxCell>
        <mxCell id="206" value="WORK&#xa;PACKAGE 1" style="whiteSpace=wrap;rounded=1;fillColor=#999999;strokeColor=none;shadow=1;fontColor=#FFFFFF;fontStyle=0" parent="1" vertex="1">
          <mxGeometry x="2119.999999999999" y="399.9999999999997" width="120" height="60" as="geometry" />
        </mxCell>
        <mxCell id="207" value="WORK&#xa;PACKAGE 2" style="whiteSpace=wrap;rounded=1;fillColor=#999999;strokeColor=none;shadow=1;fontColor=#FFFFFF;fontStyle=0" parent="1" vertex="1">
          <mxGeometry x="2119.9999999999995" y="479.9999999999997" width="120" height="60" as="geometry" />
        </mxCell>
        <mxCell id="208" value="WORK&#xa;PACKAGE 3" style="whiteSpace=wrap;rounded=1;fillColor=#999999;strokeColor=none;shadow=1;fontColor=#FFFFFF;fontStyle=0" parent="1" vertex="1">
          <mxGeometry x="2119.9999999999995" y="559.9999999999997" width="120" height="60" as="geometry" />
        </mxCell>
        <mxCell id="209" value="WORK&#xa;PACKAGE 4" style="whiteSpace=wrap;rounded=1;fillColor=#999999;strokeColor=none;shadow=1;fontColor=#FFFFFF;fontStyle=0" parent="1" vertex="1">
          <mxGeometry x="2119.9999999999995" y="639.9999999999997" width="120" height="60" as="geometry" />
        </mxCell>
        <mxCell id="210" value="WORK&#xa;PACKAGE 5" style="whiteSpace=wrap;rounded=1;fillColor=#999999;strokeColor=none;shadow=1;fontColor=#FFFFFF;fontStyle=0" parent="1" vertex="1">
          <mxGeometry x="2120" y="719.9999999999997" width="120" height="60" as="geometry" />
        </mxCell>
        <mxCell id="211" value="" style="edgeStyle=elbowEdgeStyle;elbow=horizontal;rounded=0;fontColor=#000000;endArrow=none;endFill=0;strokeWidth=8;strokeColor=#23445D;" parent="1" source="199" target="201" edge="1">
          <mxGeometry width="100" height="100" relative="1" as="geometry">
            <mxPoint x="1900" y="330.00000000000006" as="sourcePoint" />
            <mxPoint x="1909.9999999999995" y="429.9999999999996" as="targetPoint" />
            <Array as="points">
              <mxPoint x="1900" y="379.9999999999996" />
            </Array>
          </mxGeometry>
        </mxCell>
        <mxCell id="212" value="" style="edgeStyle=elbowEdgeStyle;elbow=horizontal;rounded=0;fontColor=#000000;endArrow=none;endFill=0;strokeWidth=8;strokeColor=#23445D;" parent="1" source="199" target="202" edge="1">
          <mxGeometry width="100" height="100" relative="1" as="geometry">
            <mxPoint x="1910" y="329.9999999999996" as="sourcePoint" />
            <mxPoint x="1909.9999999999998" y="509.9999999999996" as="targetPoint" />
            <Array as="points">
              <mxPoint x="1900" y="419.9999999999996" />
            </Array>
          </mxGeometry>
        </mxCell>
        <mxCell id="213" value="" style="edgeStyle=elbowEdgeStyle;elbow=horizontal;rounded=0;fontColor=#000000;endArrow=none;endFill=0;strokeWidth=8;strokeColor=#23445D;" parent="1" source="199" target="205" edge="1">
          <mxGeometry width="100" height="100" relative="1" as="geometry">
            <mxPoint x="1910" y="329.9999999999996" as="sourcePoint" />
            <mxPoint x="1910" y="749.9999999999995" as="targetPoint" />
            <Array as="points">
              <mxPoint x="1900" y="549.9999999999995" />
            </Array>
          </mxGeometry>
        </mxCell>
        <mxCell id="214" value="" style="edgeStyle=elbowEdgeStyle;elbow=horizontal;rounded=0;fontColor=#000000;endArrow=none;endFill=0;strokeWidth=8;strokeColor=#23445D;" parent="1" source="199" target="204" edge="1">
          <mxGeometry width="100" height="100" relative="1" as="geometry">
            <mxPoint x="1910" y="329.9999999999996" as="sourcePoint" />
            <mxPoint x="1910" y="669.9999999999995" as="targetPoint" />
            <Array as="points">
              <mxPoint x="1900" y="499.9999999999996" />
            </Array>
          </mxGeometry>
        </mxCell>
        <mxCell id="215" value="" style="edgeStyle=elbowEdgeStyle;elbow=horizontal;rounded=0;fontColor=#000000;endArrow=none;endFill=0;strokeWidth=8;strokeColor=#23445D;" parent="1" source="199" target="203" edge="1">
          <mxGeometry width="100" height="100" relative="1" as="geometry">
            <mxPoint x="1910" y="329.9999999999996" as="sourcePoint" />
            <mxPoint x="1909.9999999999998" y="589.9999999999995" as="targetPoint" />
            <Array as="points">
              <mxPoint x="1900" y="469.9999999999996" />
            </Array>
          </mxGeometry>
        </mxCell>
        <mxCell id="216" value="" style="edgeStyle=elbowEdgeStyle;elbow=horizontal;rounded=0;fontColor=#000000;endArrow=none;endFill=0;strokeWidth=8;strokeColor=#23445D;" parent="1" source="200" target="206" edge="1">
          <mxGeometry width="100" height="100" relative="1" as="geometry">
            <mxPoint x="2090" y="330.00000000000006" as="sourcePoint" />
            <mxPoint x="2099.9999999999995" y="429.9999999999996" as="targetPoint" />
            <Array as="points">
              <mxPoint x="2100" y="379.9999999999996" />
            </Array>
          </mxGeometry>
        </mxCell>
        <mxCell id="217" value="" style="edgeStyle=elbowEdgeStyle;elbow=horizontal;rounded=0;fontColor=#000000;endArrow=none;endFill=0;strokeWidth=8;strokeColor=#23445D;" parent="1" source="200" target="207" edge="1">
          <mxGeometry width="100" height="100" relative="1" as="geometry">
            <mxPoint x="2100" y="329.9999999999996" as="sourcePoint" />
            <mxPoint x="2100" y="509.9999999999996" as="targetPoint" />
            <Array as="points">
              <mxPoint x="2100" y="419.9999999999996" />
            </Array>
          </mxGeometry>
        </mxCell>
        <mxCell id="218" value="" style="edgeStyle=elbowEdgeStyle;elbow=horizontal;rounded=0;fontColor=#000000;endArrow=none;endFill=0;strokeWidth=8;strokeColor=#23445D;" parent="1" source="200" target="210" edge="1">
          <mxGeometry width="100" height="100" relative="1" as="geometry">
            <mxPoint x="2100" y="329.9999999999996" as="sourcePoint" />
            <mxPoint x="2100" y="749.9999999999995" as="targetPoint" />
            <Array as="points">
              <mxPoint x="2100" y="539.9999999999995" />
            </Array>
          </mxGeometry>
        </mxCell>
        <mxCell id="219" value="" style="edgeStyle=elbowEdgeStyle;elbow=horizontal;rounded=0;fontColor=#000000;endArrow=none;endFill=0;strokeWidth=8;strokeColor=#23445D;" parent="1" source="200" target="209" edge="1">
          <mxGeometry width="100" height="100" relative="1" as="geometry">
            <mxPoint x="2100" y="329.9999999999996" as="sourcePoint" />
            <mxPoint x="2100" y="669.9999999999995" as="targetPoint" />
            <Array as="points">
              <mxPoint x="2100" y="499.9999999999996" />
            </Array>
          </mxGeometry>
        </mxCell>
        <mxCell id="220" value="" style="edgeStyle=elbowEdgeStyle;elbow=horizontal;rounded=0;fontColor=#000000;endArrow=none;endFill=0;strokeWidth=8;strokeColor=#23445D;" parent="1" source="200" target="208" edge="1">
          <mxGeometry width="100" height="100" relative="1" as="geometry">
            <mxPoint x="2100" y="329.9999999999996" as="sourcePoint" />
            <mxPoint x="2100" y="589.9999999999995" as="targetPoint" />
            <Array as="points">
              <mxPoint x="2100" y="469.9999999999996" />
            </Array>
          </mxGeometry>
        </mxCell>
        <mxCell id="221" value="" style="edgeStyle=elbowEdgeStyle;elbow=vertical;rounded=0;fontColor=#000000;endArrow=none;endFill=0;strokeWidth=8;strokeColor=#23445D;" parent="1" source="6" target="133" edge="1">
          <mxGeometry width="100" height="100" relative="1" as="geometry">
            <mxPoint x="780" y="270" as="sourcePoint" />
            <mxPoint x="880" y="170" as="targetPoint" />
          </mxGeometry>
        </mxCell>
        <mxCell id="222" value="" style="edgeStyle=elbowEdgeStyle;elbow=vertical;rounded=0;fontColor=#000000;endArrow=none;endFill=0;strokeWidth=8;strokeColor=#23445D;" parent="1" source="6" target="134" edge="1">
          <mxGeometry width="100" height="100" relative="1" as="geometry">
            <mxPoint x="1030" y="280" as="sourcePoint" />
            <mxPoint x="1130" y="180" as="targetPoint" />
          </mxGeometry>
        </mxCell>
        <mxCell id="223" value="" style="edgeStyle=elbowEdgeStyle;elbow=vertical;rounded=0;fontColor=#000000;endArrow=none;endFill=0;strokeWidth=8;strokeColor=#23445D;" parent="1" source="7" target="155" edge="1">
          <mxGeometry width="100" height="100" relative="1" as="geometry">
            <mxPoint x="1340" y="300" as="sourcePoint" />
            <mxPoint x="1240" y="190" as="targetPoint" />
          </mxGeometry>
        </mxCell>
        <mxCell id="224" value="" style="edgeStyle=elbowEdgeStyle;elbow=vertical;rounded=0;fontColor=#000000;endArrow=none;endFill=0;strokeWidth=8;strokeColor=#23445D;" parent="1" source="7" target="156" edge="1">
          <mxGeometry width="100" height="100" relative="1" as="geometry">
            <mxPoint x="1430" y="290" as="sourcePoint" />
            <mxPoint x="1530" y="190" as="targetPoint" />
          </mxGeometry>
        </mxCell>
        <mxCell id="225" value="" style="edgeStyle=elbowEdgeStyle;elbow=vertical;rounded=0;fontColor=#000000;endArrow=none;endFill=0;strokeWidth=8;strokeColor=#23445D;" parent="1" source="8" target="177" edge="1">
          <mxGeometry width="100" height="100" relative="1" as="geometry">
            <mxPoint x="1550" y="290" as="sourcePoint" />
            <mxPoint x="1650" y="190" as="targetPoint" />
          </mxGeometry>
        </mxCell>
        <mxCell id="226" value="" style="edgeStyle=elbowEdgeStyle;elbow=vertical;rounded=0;fontColor=#000000;endArrow=none;endFill=0;strokeWidth=8;strokeColor=#23445D;" parent="1" source="8" target="178" edge="1">
          <mxGeometry width="100" height="100" relative="1" as="geometry">
            <mxPoint x="1780" y="290" as="sourcePoint" />
            <mxPoint x="1880" y="190" as="targetPoint" />
          </mxGeometry>
        </mxCell>
        <mxCell id="227" value="" style="edgeStyle=elbowEdgeStyle;elbow=vertical;rounded=0;fontColor=#000000;endArrow=none;endFill=0;strokeWidth=8;strokeColor=#23445D;" parent="1" source="5" target="199" edge="1">
          <mxGeometry width="100" height="100" relative="1" as="geometry">
            <mxPoint x="1900" y="290" as="sourcePoint" />
            <mxPoint x="2000" y="190" as="targetPoint" />
          </mxGeometry>
        </mxCell>
        <mxCell id="228" value="" style="edgeStyle=elbowEdgeStyle;elbow=vertical;rounded=0;fontColor=#000000;endArrow=none;endFill=0;strokeWidth=8;strokeColor=#23445D;" parent="1" source="5" target="200" edge="1">
          <mxGeometry width="100" height="100" relative="1" as="geometry">
            <mxPoint x="2160" y="290" as="sourcePoint" />
            <mxPoint x="2260" y="190" as="targetPoint" />
          </mxGeometry>
        </mxCell>
        <mxCell id="229" value="" style="edgeStyle=elbowEdgeStyle;elbow=vertical;rounded=0;fontColor=#000000;endArrow=none;endFill=0;strokeWidth=8;strokeColor=#23445D;" parent="1" source="2" target="3" edge="1">
          <mxGeometry width="100" height="100" relative="1" as="geometry">
            <mxPoint x="540" y="140" as="sourcePoint" />
            <mxPoint x="640" y="40" as="targetPoint" />
          </mxGeometry>
        </mxCell>
        <mxCell id="230" value="" style="edgeStyle=elbowEdgeStyle;elbow=vertical;rounded=0;fontColor=#000000;endArrow=none;endFill=0;strokeWidth=8;strokeColor=#23445D;" parent="1" source="2" target="4" edge="1">
          <mxGeometry width="100" height="100" relative="1" as="geometry">
            <mxPoint x="550" y="150" as="sourcePoint" />
            <mxPoint x="650" y="50" as="targetPoint" />
          </mxGeometry>
        </mxCell>
        <mxCell id="231" value="" style="edgeStyle=elbowEdgeStyle;elbow=vertical;rounded=0;fontColor=#000000;endArrow=none;endFill=0;strokeWidth=8;strokeColor=#23445D;" parent="1" source="2" target="6" edge="1">
          <mxGeometry width="100" height="100" relative="1" as="geometry">
            <mxPoint x="560" y="160" as="sourcePoint" />
            <mxPoint x="660" y="60" as="targetPoint" />
          </mxGeometry>
        </mxCell>
        <mxCell id="232" value="" style="edgeStyle=elbowEdgeStyle;elbow=vertical;rounded=0;fontColor=#000000;endArrow=none;endFill=0;strokeWidth=8;strokeColor=#23445D;" parent="1" source="2" target="7" edge="1">
          <mxGeometry width="100" height="100" relative="1" as="geometry">
            <mxPoint x="570" y="170" as="sourcePoint" />
            <mxPoint x="670" y="70" as="targetPoint" />
          </mxGeometry>
        </mxCell>
        <mxCell id="233" value="" style="edgeStyle=elbowEdgeStyle;elbow=vertical;rounded=0;fontColor=#000000;endArrow=none;endFill=0;strokeWidth=8;strokeColor=#23445D;" parent="1" source="2" target="8" edge="1">
          <mxGeometry width="100" height="100" relative="1" as="geometry">
            <mxPoint x="580" y="180" as="sourcePoint" />
            <mxPoint x="680" y="80" as="targetPoint" />
          </mxGeometry>
        </mxCell>
        <mxCell id="234" value="" style="edgeStyle=elbowEdgeStyle;elbow=vertical;rounded=0;fontColor=#000000;endArrow=none;endFill=0;strokeWidth=8;strokeColor=#23445D;" parent="1" source="2" target="5" edge="1">
          <mxGeometry width="100" height="100" relative="1" as="geometry">
            <mxPoint x="590" y="190" as="sourcePoint" />
            <mxPoint x="690" y="90" as="targetPoint" />
          </mxGeometry>
        </mxCell>
      </root>
    </mxGraphModel>
  </diagram>
</mxfile>
